<svg xmlns="http://www.w3.org/2000/svg" version="1.1" xmlns:xlink="http://www.w3.org/1999/xlink" xmlns:svgjs="http://svgjs.dev/svgjs" width="1980" height="930" preserveAspectRatio="none" viewBox="0 0 1980 930"><g mask="url(&quot;#SvgjsMask5350&quot;)" fill="none"><rect width="1980" height="930" x="0" y="0" fill="#0e2a47"></rect><use xlink:href="#SvgjsG5357" transform="translate(0, 0)" fill="#0f457b"></use><use xlink:href="#SvgjsG5357" transform="translate(0, 929.9999999999999)" fill="#0f457b"></use><use xlink:href="#SvgjsG5357" transform="translate(1856, 0)" fill="#0f457b"></use><use xlink:href="#SvgjsG5357" transform="translate(1856, 929.9999999999999)" fill="#0f457b"></use></g><defs><mask id="SvgjsMask5350"><rect width="1980" height="930" fill="#ffffff"></rect></mask><g id="SvgjsG5355"><path d="M8.22 8.33l-0.17 0.49c0.49 0.09 0.58-0.34 0.17-0.49l0 0z m-0.28-0.76L8.09 7.14c-0.37-0.06-0.49 0.31-0.15 0.43z"></path><path d="M8.72 6.08c-1.07-0.37-2.23 0.2-2.6 1.26-0.37 1.07 0.2 2.23 1.27 2.6 1.07 0.37 2.23-0.2 2.6-1.27 0.37-1.07-0.2-2.23-1.27-2.59l0 0z m-0.85 3.23l-0.12 0.35-0.48-0.17 0.12-0.35c-0.26-0.14-0.67-0.57-0.5-1.15l0.5 0.17c-0.02 0.16-0.04 0.35 0.17 0.49l0.2-0.57c-0.3-0.15-0.71-0.45-0.53-0.95 0.2-0.57 0.89-0.53 1.02-0.48l0.12-0.35 0.47 0.16-0.11 0.35c0.31 0.13 0.69 0.56 0.51 1.06l-0.5-0.17c0.04-0.16-0.03-0.34-0.18-0.4l-0.18 0.52c0.37 0.17 0.77 0.47 0.59 0.98-0.15 0.45-0.72 0.62-1.1 0.51l0 0z"></path><path d="M-0.84 9.11l15.12 5.21L16.87 6.82 1.74 1.61l-2.58 7.5z m1.91-0.93L2.67 3.53l12.28 4.23L13.35 12.4 1.07 8.18z"></path></g><g id="SvgjsG5351"><path d="M11.78 4.98a0.64 0.64 0 0 0-0.81 0.4c-0.12 0.33 0.06 0.7 0.4 0.82a0.64 0.64 0 0 0 0.81-0.4 0.64 0.64 0 0 0-0.4-0.82z m-1.85 4.92a0.64 0.64 0 0 0 0.4 0.81c0.33 0.11 0.7-0.06 0.81-0.39a0.64 0.64 0 0 0-0.39-0.82 0.64 0.64 0 0 0-0.82 0.4z m-2.49-7.14a0.64 0.64 0 0 0-0.41 1.21 0.64 0.64 0 0 0 0.81-0.4 0.64 0.64 0 0 0-0.4-0.81z"></path><path d="M11.23 0.65C8.62-0.25 5.55 0.88 4.31 2.86c-0.28 0.44-0.83 1.65-0.84 1.65L1.23 7.12A0.49 0.49 0 0 0 1.14 7.29a0.49 0.49 0 0 0 0.3 0.62l0.77 0.27-0.55 1.6c-0.43 1.25 0.23 2.61 1.48 3.04l0.9 0.31L3.44 14.89 9.56 17 11.24 12.13c1.7-0.59 3.12-1.93 3.75-3.76C16.08 5.2 14.4 1.74 11.23 0.65z m-6.74 5.49c-0.35-0.12-0.54-0.51-0.42-0.86a0.68 0.68 0 0 1 0.86-0.42c0.35 0.12 0.54 0.51 0.42 0.86a0.68 0.68 0 0 1-0.86 0.42z m8.77 2.05l-0.8 0.39-0.55-0.76c-0.17 0.02-0.33 0.03-0.5 0.02l-0.41 0.74 0.28 0.1-0.07 0.45c0.03 0.02 0.05 0.03 0.07 0.05 0.07 0.05 0.12 0.11 0.18 0.18l0.41-0.12 0.18 0.37-0.36 0.26c0.02 0.11 0.03 0.23 0.01 0.34l0.38 0.21-0.13 0.39-0.45-0.07c-0.02 0.03-0.03 0.06-0.05 0.08a1.15 1.15 0 0 1-0.18 0.17l0.12 0.42-0.37 0.18-0.26-0.37a1.15 1.15 0 0 1-0.34 0.02l-0.21 0.38L9.82 11.48l0.07-0.44c-0.03-0.02-0.06-0.03-0.08-0.06a1.17 1.17 0 0 1-0.17-0.17l-0.42 0.12L9.04 10.56l0.37-0.27a1.15 1.15 0 0 1-0.02-0.34l-0.38-0.21 0.13-0.39 0.45 0.08c0.02-0.03 0.03-0.06 0.06-0.09 0.05-0.07 0.11-0.12 0.17-0.17l-0.12-0.42 0.37-0.18 0.27 0.37a1.17 1.17 0 0 1 0.34-0.01l0.18-0.33-0.74-0.26L10.28 7.41c-0.03-0.02-0.06-0.04-0.09-0.06a2.22 2.22 0 0 1-0.28-0.28l-0.87 0.26-0.39-0.81 0.76-0.54a2.18 2.18 0 0 1-0.02-0.51l-0.8-0.43L8.83 4.34l-0.45-0.07c-0.01 0.02-0.02 0.04-0.03 0.06a1.4 1.4 0 0 1-0.18 0.17l0.17 0.58-0.53 0.25-0.36-0.5a1.44 1.44 0 0 1-0.32 0.01l-0.29 0.52-0.55-0.19 0.1-0.61c-0.02-0.01-0.04-0.02-0.05-0.03a1.43 1.43 0 0 1-0.18-0.18l-0.58 0.16-0.25-0.52 0.5-0.37a1.49 1.49 0 0 1-0.01-0.31L5.3 3.02 5.49 2.47l0.61 0.1c0.01-0.02 0.03-0.04 0.04-0.05 0.05-0.07 0.11-0.12 0.17-0.18l-0.16-0.58 0.52-0.25 0.36 0.5a1.44 1.44 0 0 1 0.32-0.01l0.29-0.53 0.55 0.2L8.09 2.28c0.02 0.01 0.04 0.02 0.06 0.03 0.07 0.05 0.12 0.12 0.17 0.18l0.58-0.16 0.26 0.52-0.51 0.36a1.4 1.4 0 0 1 0.01 0.32l0.53 0.28-0.14 0.41 0.77 0.12c0.02-0.03 0.04-0.06 0.06-0.08 0.08-0.1 0.18-0.2 0.28-0.29l-0.26-0.87 0.8-0.39 0.56 0.77a2.19 2.19 0 0 1 0.5-0.02l0.43-0.8 0.85 0.29-0.15 0.93c0.03 0.02 0.06 0.04 0.08 0.07 0.1 0.08 0.19 0.18 0.28 0.27l0.88-0.25 0.38 0.8-0.76 0.55c0.02 0.17 0.03 0.33 0.02 0.5l0.8 0.44-0.3 0.84-0.93-0.15c-0.02 0.03-0.04 0.06-0.06 0.09-0.08 0.1-0.18 0.19-0.28 0.28l0.26 0.87z"></path></g><g id="SvgjsG5354"><path d="M4.18-0.86l-4.77 13.87 12.17 4.19L16.36 3.33l-12.18-4.19z m-0.63 13.4L1.48 11.83 2.19 9.77 4.26 10.48l-0.71 2.06z m1.08-3.15L2.57 8.68 3.28 6.62 5.34 7.33l-0.71 2.06z m2.48 4.38L5.05 13.06 5.76 11l2.06 0.71-0.71 2.06z m1.08-3.15L6.13 9.91 6.84 7.85l2.06 0.71-0.71 2.06z m2.49 4.38L8.62 14.29l1.79-5.21 2.06 0.71-1.79 5.21z m2.56-7.21l-9.24-3.19L5.13 1.3l9.25 3.19L13.24 7.79z"></path></g><g id="SvgjsG5356"><path d="M-1.8 12.01l14.87 5.12L17.95 2.97 3.08-2.15l-4.88 14.16zM3.25 1.5c0.36-1.04 1.5-1.6 2.54-1.24l8.55 2.95a2 2 0 0 1 1.24 2.54L13.81 10.89 12.66 10.49l-0.04-2.17a0.32 0.32 0 0 0-0.57-0.19c-0.08 0.1-0.4 0.5-0.78 0.99 0.13-1.37 0.41-4.25 0.41-4.26a0.32 0.32 0 0 0-0.23-0.33c-0.15-0.04-0.31 0.03-0.37 0.16s-1.98 4.18-2.55 5.38c-0.12-0.47-0.24-0.94-0.25-0.94a0.32 0.32 0 0 0-0.2-0.22l-1.15-0.39a1168.61 1168.61 0 0 0-0.05-2.18 0.32 0.32 0 0 0-0.21-0.29 0.31 0.31 0 0 0-0.35 0.1l-0.79 0.99c0.13-1.37 0.42-4.25 0.41-4.25a0.32 0.32 0 0 0-0.6-0.17c0 0-1.98 4.18-2.55 5.37L2.54 7.15a0.32 0.32 0 0 0-0.2-0.21L1.48 6.64 3.25 1.5z m7.07 13.37L1.78 11.92a2 2 0 0 1-1.25-2.54l0.74-2.14 0.7 0.24c0.07 0.27 0.42 1.61 0.42 1.61a0.32 0.32 0 0 0 0.6 0.06c0.06-0.12 1.31-2.76 2.15-4.52-0.16 1.58-0.34 3.52-0.35 3.52-0.02 0.14 0.06 0.27 0.2 0.32 0.13 0.05 0.28 0.01 0.36-0.09 0 0 0.48-0.61 0.91-1.15 0.01 0.7 0.03 1.52 0.04 1.52a0.31 0.31 0 0 0 0.21 0.29l1.2 0.42c0.07 0.27 0.42 1.61 0.42 1.61a0.32 0.32 0 0 0 0.28 0.23c0.13 0.01 0.26-0.06 0.31-0.17s1.31-2.76 2.16-4.53c-0.16 1.58-0.35 3.52-0.35 3.52-0.01 0.14 0.06 0.27 0.2 0.33 0.13 0.05 0.28 0.01 0.36-0.1 0 0 0.48-0.61 0.91-1.14 0.01 0.7 0.03 1.52 0.03 1.51a0.32 0.32 0 0 0 0.22 0.3l1.35 0.46-0.73 2.14a2 2 0 0 1-2.55 1.24z" fill-rule="evenodd"></path></g><g id="SvgjsG5352"><path d="M9.34 5.08l-0.17 0.49c0.49 0.09 0.58-0.34 0.17-0.49z m-0.28-0.76L9.21 3.88c-0.37-0.06-0.49 0.31-0.15 0.44z"></path><path d="M9.84 2.82c-1.07-0.37-2.23 0.2-2.6 1.27-0.37 1.07 0.2 2.23 1.27 2.6 1.07 0.37 2.23-0.2 2.6-1.27 0.37-1.07-0.2-2.23-1.27-2.6z m-0.85 3.24l-0.12 0.34-0.48-0.16 0.12-0.35c-0.26-0.14-0.67-0.57-0.5-1.15l0.5 0.17c-0.02 0.16-0.04 0.35 0.17 0.49l0.2-0.57c-0.3-0.15-0.71-0.45-0.53-0.96 0.2-0.57 0.89-0.53 1.02-0.48l0.12-0.34 0.47 0.16-0.11 0.35c0.31 0.13 0.69 0.56 0.51 1.06l-0.5-0.17c0.04-0.16-0.03-0.34-0.17-0.41l-0.19 0.53c0.37 0.17 0.77 0.47 0.59 0.98-0.15 0.45-0.72 0.62-1.1 0.51z m-0.16 5.8c-1.07-0.37-2.23 0.2-2.6 1.27s0.2 2.23 1.27 2.6 2.23-0.2 2.59-1.27c0.37-1.07-0.2-2.23-1.26-2.6zM8.93 14.39l-0.17 0.47-0.6-0.21-0.23 0.67-0.51-0.18L7.65 14.48l-0.64-0.22 0.16-0.47 0.65 0.23-0.34-1.79 0.56 0.2 0.21 1.1 0.88-0.73 0.52 0.18L8.3 14.17l0.63 0.22z m-5.44-6.82c-1.07-0.37-2.23 0.2-2.6 1.27S1.09 11.07 2.16 11.44s2.23-0.2 2.6-1.27-0.2-2.23-1.27-2.6z m-0.48 1.59l-0.16 0.46-0.34-0.12-0.38 1.1L1.63 10.43l0.38-1.1-0.29-0.1 0.16-0.46 0.29 0.1 0.14-0.41c0.05-0.16 0.38-0.59 0.96-0.39 0.59 0.2 0.56 0.72 0.42 1.11l-0.48-0.17c0.09-0.25 0.1-0.39-0.1-0.46-0.21-0.07-0.3 0.06-0.38 0.29l-0.07 0.2 0.35 0.12z m0.95 0.84c-0.41-0.09-0.58 0.09-0.67 0.35l-0.2 0.58-0.48-0.16L3.14 9.2l0.49 0.17-0.08 0.25c0.15-0.09 0.31-0.17 0.57-0.09l-0.16 0.47z"></path><path d="M2.86-1.64l-2.58 7.5 8.88 3.06c-0.14 0.95 0.41 1.9 1.36 2.23s1.96-0.08 2.44-0.92L15.4 11.07 17.99 3.57 2.86-1.64z m8.23 10.47l0.44 0.15-0.14 0.42-0.36-0.12c-0.09 0.4-0.36 0.48-0.42 0.6l1.2 0.41-0.15 0.42L9.88 10.09l0.14-0.41c0.25-0.07 0.47-0.37 0.47-0.58l-0.37-0.13 0.14-0.43 0.3 0.11c-0.02-0.22 0.01-0.28 0.07-0.45s0.39-0.67 1.11-0.42c0.67 0.23 0.67 0.85 0.53 1.24l-0.51-0.17c0.05-0.25 0.02-0.48-0.19-0.56-0.34-0.12-0.41 0.1-0.44 0.17s-0.07 0.25-0.04 0.38z m3.38 0.32l-1.31-0.45c-0.17-0.64-0.64-1.19-1.31-1.42S10.46 7.19 9.94 7.59L2.19 4.92 3.79 0.28l12.28 4.22L14.47 9.15z"></path></g><g id="SvgjsG5353"><path d="M5.39 15.56l0 0c-2.02-0.7-3.65-2.14-4.58-4.06C-0.13 9.58-0.26 7.41 0.44 5.39 1.13 3.37 2.57 1.74 4.49 0.81 6.41-0.13 8.58-0.26 10.6 0.43l0 0.01C12.62 1.13 14.25 2.57 15.19 4.49c0.94 1.92 1.07 4.09 0.38 6.11-0.7 2.02-2.14 3.65-4.07 4.59-1.92 0.94-4.09 1.07-6.11 0.37z m4.61-13.39c-1.55-0.54-3.22-0.43-4.7 0.29-1.48 0.72-2.58 1.97-3.12 3.53-0.54 1.56-0.44 3.23 0.28 4.71 0.72 1.48 1.97 2.59 3.53 3.12 3.21 1.1 6.73-0.61 7.84-3.82 1.1-3.21-0.61-6.72-3.82-7.82l-0.01-0.01z"></path><path d="M8.93 7.41L9.52 5.72c0.47 0.2 0.68 0.81 0.56 1.32l1.6 0.55c0.57-1.65-0.63-3.03-1.64-3.45l0.38-1.11L8.89 2.5l-0.38 1.12c-0.45-0.15-2.68-0.28-3.31 1.56-0.57 1.64 0.74 2.59 1.71 3.08l-0.64 1.86c-0.67-0.46-0.61-1.08-0.55-1.59l-1.62-0.56c-0.53 1.88 0.79 3.29 1.63 3.73l-0.39 1.13 1.54 0.54 0.39-1.12c1.25 0.36 3.06-0.2 3.56-1.65 0.57-1.66-0.71-2.63-1.9-3.18zM7.49 6.61c-1.08-0.39-0.69-1.59 0.48-1.4l-0.48 1.4z m0.34 4.05L8.38 9.07c1.34 0.5 1.02 1.9-0.55 1.59z"></path></g><g id="SvgjsG5357"><use xlink:href="#SvgjsG5351" transform="translate(0, 0) scale(2.9)" fill="#0f457b"></use><use xlink:href="#SvgjsG5352" transform="translate(0, 185.6) scale(2.9)" fill="#0f457b"></use><use xlink:href="#SvgjsG5353" transform="translate(0, 371.2) scale(2.9)" fill="#0f457b"></use><use xlink:href="#SvgjsG5352" transform="translate(0, 556.8) scale(2.9)" fill="#0f457b"></use><use xlink:href="#SvgjsG5354" transform="translate(0, 742.4) scale(2.9)" fill="#0f457b"></use><use xlink:href="#SvgjsG5353" transform="translate(0, 928) scale(2.9)" fill="#0f457b"></use><use xlink:href="#SvgjsG5351" transform="translate(185.6, 0) scale(2.9)" fill="#0f457b"></use><use xlink:href="#SvgjsG5352" transform="translate(185.6, 185.6) scale(2.9)" fill="#0f457b"></use><use xlink:href="#SvgjsG5354" transform="translate(185.6, 371.2) scale(2.9)" fill="#0f457b"></use><use xlink:href="#SvgjsG5351" transform="translate(185.6, 556.8) scale(2.9)" fill="#0f457b"></use><use xlink:href="#SvgjsG5355" transform="translate(185.6, 742.4) scale(2.9)" fill="#0f457b"></use><use xlink:href="#SvgjsG5351" transform="translate(185.6, 928) scale(2.9)" fill="#0f457b"></use><use xlink:href="#SvgjsG5351" transform="translate(371.2, 0) scale(2.9)" fill="#0f457b"></use><use xlink:href="#SvgjsG5352" transform="translate(371.2, 185.6) scale(2.9)" fill="#0f457b"></use><use xlink:href="#SvgjsG5355" transform="translate(371.2, 371.2) scale(2.9)" fill="#0f457b"></use><use xlink:href="#SvgjsG5354" transform="translate(371.2, 556.8) scale(2.9)" fill="#0f457b"></use><use xlink:href="#SvgjsG5353" transform="translate(371.2, 742.4) scale(2.9)" fill="#0f457b"></use><use xlink:href="#SvgjsG5354" transform="translate(371.2, 928) scale(2.9)" fill="#0f457b"></use><use xlink:href="#SvgjsG5353" transform="translate(556.8, 0) scale(2.9)" fill="#0f457b"></use><use xlink:href="#SvgjsG5353" transform="translate(556.8, 185.6) scale(2.9)" fill="#0f457b"></use><use xlink:href="#SvgjsG5355" transform="translate(556.8, 371.2) scale(2.9)" fill="#0f457b"></use><use xlink:href="#SvgjsG5356" transform="translate(556.8, 556.8) scale(2.9)" fill="#0f457b"></use><use xlink:href="#SvgjsG5354" transform="translate(556.8, 742.4) scale(2.9)" fill="#0f457b"></use><use xlink:href="#SvgjsG5355" transform="translate(556.8, 928) scale(2.9)" fill="#0f457b"></use><use xlink:href="#SvgjsG5355" transform="translate(742.4, 0) scale(2.9)" fill="#0f457b"></use><use xlink:href="#SvgjsG5352" transform="translate(742.4, 185.6) scale(2.9)" fill="#0f457b"></use><use xlink:href="#SvgjsG5354" transform="translate(742.4, 371.2) scale(2.9)" fill="#0f457b"></use><use xlink:href="#SvgjsG5356" transform="translate(742.4, 556.8) scale(2.9)" fill="#0f457b"></use><use xlink:href="#SvgjsG5356" transform="translate(742.4, 742.4) scale(2.9)" fill="#0f457b"></use><use xlink:href="#SvgjsG5352" transform="translate(742.4, 928) scale(2.9)" fill="#0f457b"></use><use xlink:href="#SvgjsG5355" transform="translate(928, 0) scale(2.9)" fill="#0f457b"></use><use xlink:href="#SvgjsG5355" transform="translate(928, 185.6) scale(2.9)" fill="#0f457b"></use><use xlink:href="#SvgjsG5354" transform="translate(928, 371.2) scale(2.9)" fill="#0f457b"></use><use xlink:href="#SvgjsG5351" transform="translate(928, 556.8) scale(2.9)" fill="#0f457b"></use><use xlink:href="#SvgjsG5354" transform="translate(928, 742.4) scale(2.9)" fill="#0f457b"></use><use xlink:href="#SvgjsG5353" transform="translate(928, 928) scale(2.9)" fill="#0f457b"></use><use xlink:href="#SvgjsG5354" transform="translate(1113.6, 0) scale(2.9)" fill="#0f457b"></use><use xlink:href="#SvgjsG5355" transform="translate(1113.6, 185.6) scale(2.9)" fill="#0f457b"></use><use xlink:href="#SvgjsG5352" transform="translate(1113.6, 371.2) scale(2.9)" fill="#0f457b"></use><use xlink:href="#SvgjsG5355" transform="translate(1113.6, 556.8) scale(2.9)" fill="#0f457b"></use><use xlink:href="#SvgjsG5351" transform="translate(1113.6, 742.4) scale(2.9)" fill="#0f457b"></use><use xlink:href="#SvgjsG5355" transform="translate(1113.6, 928) scale(2.9)" fill="#0f457b"></use><use xlink:href="#SvgjsG5351" transform="translate(1299.2, 0) scale(2.9)" fill="#0f457b"></use><use xlink:href="#SvgjsG5353" transform="translate(1299.2, 185.6) scale(2.9)" fill="#0f457b"></use><use xlink:href="#SvgjsG5351" transform="translate(1299.2, 371.2) scale(2.9)" fill="#0f457b"></use><use xlink:href="#SvgjsG5356" transform="translate(1299.2, 556.8) scale(2.9)" fill="#0f457b"></use><use xlink:href="#SvgjsG5355" transform="translate(1299.2, 742.4) scale(2.9)" fill="#0f457b"></use><use xlink:href="#SvgjsG5355" transform="translate(1299.2, 928) scale(2.9)" fill="#0f457b"></use><use xlink:href="#SvgjsG5356" transform="translate(1484.8, 0) scale(2.9)" fill="#0f457b"></use><use xlink:href="#SvgjsG5352" transform="translate(1484.8, 185.6) scale(2.9)" fill="#0f457b"></use><use xlink:href="#SvgjsG5352" transform="translate(1484.8, 371.2) scale(2.9)" fill="#0f457b"></use><use xlink:href="#SvgjsG5351" transform="translate(1484.8, 556.8) scale(2.9)" fill="#0f457b"></use><use xlink:href="#SvgjsG5352" transform="translate(1484.8, 742.4) scale(2.9)" fill="#0f457b"></use><use xlink:href="#SvgjsG5355" transform="translate(1484.8, 928) scale(2.9)" fill="#0f457b"></use><use xlink:href="#SvgjsG5356" transform="translate(1670.3999999999999, 0) scale(2.9)" fill="#0f457b"></use><use xlink:href="#SvgjsG5356" transform="translate(1670.3999999999999, 185.6) scale(2.9)" fill="#0f457b"></use><use xlink:href="#SvgjsG5355" transform="translate(1670.3999999999999, 371.2) scale(2.9)" fill="#0f457b"></use><use xlink:href="#SvgjsG5355" transform="translate(1670.3999999999999, 556.8) scale(2.9)" fill="#0f457b"></use><use xlink:href="#SvgjsG5353" transform="translate(1670.3999999999999, 742.4) scale(2.9)" fill="#0f457b"></use><use xlink:href="#SvgjsG5352" transform="translate(1670.3999999999999, 928) scale(2.9)" fill="#0f457b"></use></g></defs></svg>